<svg viewBox="0 0 90 90" fill="none" role="img" xmlns="http://www.w3.org/2000/svg" width="80" height="80"><mask id=":rmn:" maskUnits="userSpaceOnUse" x="0" y="0" width="90" height="90"><rect width="90" height="90" fill="#FFFFFF" rx="180"></rect></mask><g mask="url(#:rmn:)"><path d="M0 0h90v45H0z" fill="#f2f2f2"></path><path d="M0 45h90v45H0z" fill="#348e91"></path><path d="M83 45a38 38 0 00-76 0h76z" fill="#348e91"></path><path d="M83 45a38 38 0 01-76 0h76z" fill="#1c5052"></path><path d="M77 45a32 32 0 10-64 0h64z" fill="#1c5052"></path><path d="M77 45a32 32 0 11-64 0h64z" fill="#213635"></path><path d="M71 45a26 26 0 00-52 0h52z" fill="#213635"></path><path d="M71 45a26 26 0 01-52 0h52z" fill="#f2f2f2"></path><circle cx="45" cy="45" r="23" fill="#0a0c0d"></circle></g></svg>